<?xml version="1.0" standalone="no"?><!DOCTYPE svg PUBLIC "-//W3C//DTD SVG 1.1//EN" "http://www.w3.org/Graphics/SVG/1.1/DTD/svg11.dtd"><svg t="1582094950741" class="icon" viewBox="0 0 1024 1024" version="1.1" xmlns="http://www.w3.org/2000/svg" p-id="3282" xmlns:xlink="http://www.w3.org/1999/xlink" width="128" height="128"><defs><style type="text/css"></style></defs><path d="M512 534m-490 0a490 490 0 1 0 980 0 490 490 0 1 0-980 0Z" fill="#0F9390" p-id="3283"></path><path d="M383.804 692.484c0-20 1.948-39.686 5.754-58.874l-52.65-78.176a23.42 23.42 0 0 1-3.996-13.082V342.9h-107.736v199.454c0 4.662-1.39 9.216-3.994 13.082L79.904 765.218c33.378 62.248 79.814 116.436 135.648 158.926h278.324c-67.138-54.912-110.072-138.362-110.072-231.66z" fill="#D9EAFC" p-id="3284"></path><path d="M225.178 342.9v199.454c0 4.662-1.39 9.216-3.994 13.082l-141.28 209.782a489.232 489.232 0 0 0 18.576 31.662l162.39-241.444a23.434 23.434 0 0 0 3.994-13.082V342.9h-39.686z" fill="#AEC1ED" p-id="3285"></path><path d="M261.222 492.334H225.18v30h36.042a15 15 0 0 0 0-30zM261.222 431.334H225.18v30h36.042a15 15 0 0 0 0-30zM261.222 370.334H225.18v30h36.042a15 15 0 0 0 0-30z" fill="#85A0DD" p-id="3286"></path><path d="M384.892 717.87H168.264l-61.614 91.486a492.344 492.344 0 0 0 55.762 67.946h285.456c-35.186-44.67-57.922-99.572-62.976-159.432z" fill="#FF9518" p-id="3287"></path><path d="M207.948 717.87H168.264l-61.614 91.486a488.89 488.89 0 0 0 20.922 28.44l80.376-119.926z" fill="#EF8318" p-id="3288"></path><path d="M354.984 334.9c0 5.5-4.5 10-10 10h-131.872c-5.5 0-10-4.5-10-10v-37.48c0-5.5 4.5-10 10-10h131.872c5.5 0 10 4.5 10 10v37.48z" fill="#AEC1ED" p-id="3289"></path><path d="M242.794 334.9v-37.48c0-5.5 4.5-10 10-10h-39.684c-5.5 0-10 4.5-10 10v37.48c0 5.5 4.5 10 10 10h39.684c-5.5 0-10-4.5-10-10z" fill="#85A0DD" p-id="3290"></path><path d="M210.16 151.2m-46.732 0a46.732 46.732 0 1 0 93.464 0 46.732 46.732 0 1 0-93.464 0Z" fill="#FFAF10" p-id="3291"></path><path d="M304.84 220.34m-31.154 0a31.154 31.154 0 1 0 62.308 0 31.154 31.154 0 1 0-62.308 0Z" fill="#FFD00D" p-id="3292"></path><path d="M289.74 38.944m-38.944 0a38.944 38.944 0 1 0 77.888 0 38.944 38.944 0 1 0-77.888 0Z" fill="#FF9518" p-id="3293"></path><path d="M923.276 510.862c-38.578-50.936-93.36-88.966-154.25-107.082a25.164 25.164 0 0 1-17.984-24.118V122.276h-136.09v257.386a25.164 25.164 0 0 1-17.988 24.118c-60.89 18.116-115.668 56.146-154.244 107.082-39.85 52.62-60.914 115.422-60.914 181.622 0 166.078 135.114 301.192 301.19 301.192 166.078 0 301.192-135.114 301.192-301.192-0.002-66.2-21.066-129.004-60.912-181.622z" fill="#91E0E8" p-id="3294"></path><path d="M602.498 92.084v22.192c0 5.5 4.5 10 10 10h140.992c5.5 0 10-4.5 10-10V92.084h-160.992z" fill="#91E0E8" p-id="3295"></path><path d="M642.182 114.276V92.084h-39.684v22.192c0 5.5 4.5 10 10 10h39.684c-5.5 0-10-4.5-10-10z" fill="#5DC1D8" p-id="3296"></path><path d="M683 692.48m-249.9 0a249.9 249.9 0 1 0 499.8 0 249.9 249.9 0 1 0-499.8 0Z" fill="#FFFFFF" p-id="3297"></path><path d="M472.772 692.484c0-131.342 101.322-239.012 230.066-249.126a253.48 253.48 0 0 0-19.842-0.784c-138.02 0-249.908 111.888-249.908 249.91s111.888 249.91 249.908 249.91c6.68 0 13.294-0.268 19.842-0.784-128.744-10.114-230.066-117.784-230.066-249.126z" fill="#D9EAFC" p-id="3298"></path><path d="M929.672 652.4l-81.256 80.448c0.002 0.176 0.026 0.346 0.026 0.522 0 21.202-17.248 38.45-38.45 38.45s-38.45-17.248-38.45-38.45c0-0.242 0.032-0.476 0.036-0.716l-83.954-81.768a38.222 38.222 0 0 1-21.622 6.68 38.188 38.188 0 0 1-20.65-6.068l-87.086 86.432a38.228 38.228 0 0 1 2.868 14.52c0 21.202-17.248 38.45-38.45 38.45-5.242 0-10.238-1.062-14.794-2.968l-36.992 36.714c44.142 70.696 122.606 117.752 212.092 117.752 138.024 0 249.91-111.888 249.91-249.91a250.556 250.556 0 0 0-3.228-40.088z" fill="#52BBEF" p-id="3299"></path><path d="M788.838 84.084c0 5.5-4.5 10-10 10h-191.688c-5.5 0-10-4.5-10-10V10c0-5.5 4.5-10 10-10h191.688c5.5 0 10 4.5 10 10v74.084z" fill="#91E0E8" p-id="3300"></path><path d="M616.834 84.084V10c0-5.5 4.5-10 10-10h-39.684c-5.5 0-10 4.5-10 10v74.084c0 5.5 4.5 10 10 10h39.684c-5.5 0-10-4.5-10-10z" fill="#91E0E8" p-id="3301"></path><path d="M650.994 169h-36.044v30h36.044a15 15 0 0 0 0-30zM650.994 223h-36.044v30h36.044a15 15 0 0 0 0-30zM650.994 277h-36.044v30h36.044a15 15 0 0 0 0-30zM650.994 331h-36.044v30h36.044a15 15 0 0 0 0-30z" fill="#5DC1D8" p-id="3302"></path><path d="M628.24 626.2l-91.334 90.556a38.634 38.634 0 0 1 21.336 21.094l21.358-21.176V920.06a248.266 248.266 0 0 0 30 11.372V686.928l35.744-35.44c-8.774-5.62-15.12-14.686-17.104-25.288zM666.006 657.564c-5.128 0-10.018-1.028-14.496-2.86v285.72c9.832 1.236 19.844 1.89 30 1.95V654.272a38.194 38.194 0 0 1-15.504 3.292zM522.688 790.896c-16.292 0-30.216-10.204-35.804-24.542l-30.93 30.666a248.94 248.94 0 0 0 14.856 27.518l36.88-36.566v82.596a251.174 251.174 0 0 0 30.002 25.252v-107.976a38.216 38.216 0 0 1-15.004 3.052zM921.654 618.124l-86.816 85.952c8.186 6.952 13.424 17.254 13.58 28.772l18.82-18.632v147.102a250.586 250.586 0 0 0 30-40.116v-136.688l32.45-32.126a248.79 248.79 0 0 0-8.034-34.264zM809.994 771.818c-5.194 0-10.144-1.046-14.668-2.922v146.874a249.86 249.86 0 0 0 30-17.862v-129.298a38.232 38.232 0 0 1-15.332 3.208zM785.194 704.036l-81.226-79.112a38.474 38.474 0 0 1-16.34 25.96l35.788 34.856v253.382a248.768 248.768 0 0 0 30-6.806V714.96l18.164 17.692c0.214-11.46 5.45-21.704 13.614-28.616z" fill="#445EA0" p-id="3303"></path><path d="M666 619.12m-40.45 0a40.45 40.45 0 1 0 80.9 0 40.45 40.45 0 1 0-80.9 0Z" fill="#FF9518" p-id="3304"></path><path d="M665.242 619.116c0-15.122 8.314-28.286 20.606-35.226a40.242 40.242 0 0 0-19.842-5.222c-22.34 0-40.45 18.11-40.45 40.45s18.11 40.45 40.45 40.45c7.216 0 13.976-1.912 19.842-5.222-12.292-6.944-20.606-20.108-20.606-35.23z" fill="#EF8318" p-id="3305"></path><path d="M522.68 752.44m-40.45 0a40.45 40.45 0 1 0 80.9 0 40.45 40.45 0 1 0-80.9 0Z" fill="#FF9518" p-id="3306"></path><path d="M521.924 752.448c0-15.124 8.314-28.286 20.606-35.226a40.22 40.22 0 0 0-19.842-5.222c-22.34 0-40.448 18.108-40.448 40.45 0 22.34 18.108 40.45 40.448 40.45 7.216 0 13.978-1.912 19.842-5.222-12.292-6.944-20.606-20.106-20.606-35.23z" fill="#EF8318" p-id="3307"></path><path d="M810 733.38m-40.45 0a40.45 40.45 0 1 0 80.9 0 40.45 40.45 0 1 0-80.9 0Z" fill="#FF9518" p-id="3308"></path><path d="M809.23 733.37c0-15.124 8.314-28.286 20.606-35.226a40.242 40.242 0 0 0-19.842-5.222c-22.34 0-40.45 18.11-40.45 40.45s18.11 40.45 40.45 40.45c7.216 0 13.976-1.912 19.842-5.222-12.292-6.944-20.606-20.108-20.606-35.23z" fill="#EF8318" p-id="3309"></path></svg>