<?xml version="1.0" standalone="no"?><!DOCTYPE svg PUBLIC "-//W3C//DTD SVG 1.1//EN" "http://www.w3.org/Graphics/SVG/1.1/DTD/svg11.dtd"><svg t="1579079337940" class="icon" viewBox="0 0 1024 1024" version="1.1" xmlns="http://www.w3.org/2000/svg" p-id="10705" xmlns:xlink="http://www.w3.org/1999/xlink" width="200" height="200"><defs><style type="text/css"></style></defs><path d="M512 32a288 288 0 0 1 288 288v2.944a32 32 0 0 1-64 0l-0.128-10.656A224 224 0 0 0 288 320v128h544a64 64 0 0 1 64 64v384a64 64 0 0 1-64 64H192a64 64 0 0 1-64-64V512a64 64 0 0 1 64-64h32v-128a288 288 0 0 1 279.52-287.872z m320 480H192v384h640V512z" fill="#1c3747" p-id="10706" data-spm-anchor-id="a313x.7781069.0.i3" class=""></path><path d="M512 576a128 128 0 1 1 0 256 128 128 0 0 1 0-256z m0 64a64 64 0 1 0 0 128 64 64 0 0 0 0-128z" fill="#3fbac2" p-id="10707" data-spm-anchor-id="a313x.7781069.0.i4" class=""></path></svg>