<?xml version="1.0" standalone="no"?><!DOCTYPE svg PUBLIC "-//W3C//DTD SVG 1.1//EN" "http://www.w3.org/Graphics/SVG/1.1/DTD/svg11.dtd"><svg t="1579079406114" class="icon" viewBox="0 0 1024 1024" version="1.1" xmlns="http://www.w3.org/2000/svg" p-id="12796" xmlns:xlink="http://www.w3.org/1999/xlink" width="200" height="200"><defs><style type="text/css"></style></defs><path d="M477.854561 989.867531c-252.580268 0-434.608723-75.501021-443.722092-107.244216C34.132469 800.70539 202.746864 648.542845 477.854561 648.542845c270.875271 0 443.722092 158.16986 443.722092 240.838699-9.352296 29.86591-186.807001 100.485988-443.722092 100.485987z m0 0" fill="#3fbac2" p-id="12797" data-spm-anchor-id="a313x.7781069.0.i7" class="selected"></path><path d="M477.854561 34.158409a273.810663 273.810663 0 1 1-253.57011 273.059749A263.878115 263.878115 0 0 1 477.854561 34.158409z" fill="#3fbac2" p-id="12798" data-spm-anchor-id="a313x.7781069.0.i8" class="selected"></path><path d="M511.98703 598.811838a299.410015 299.410015 0 1 1 301.628625-299.307617A300.843579 300.843579 0 0 1 511.98703 598.811838z m0-554.379556a254.901276 254.901276 0 1 0 256.710296 255.071939A256.164177 256.164177 0 0 0 511.98703 44.39815z m0 0v647.390533c274.015458 0 451.98215 137.041862 466.147124 203.736705-37.170258 30.719222-219.540038 83.863475-466.147124 83.863476-250.66885 0-431.400271-59.390495-466.351919-89.188141 13.072735-63.759451 175.577419-198.41204 466.351919-198.41204m0-44.372209c-306.611966 0-511.98703 150.933776-511.98703 250.873644 0 50.618451 229.131262 125.709882 511.98703 125.709882s511.98703-69.425441 511.987029-120.043892c0-101.236902-213.123134-256.539634-511.987029-256.539634z m0 0" fill="#1c3747" p-id="12799" data-spm-anchor-id="a313x.7781069.0.i9" class=""></path></svg>