<?xml version="1.0" standalone="no"?><!DOCTYPE svg PUBLIC "-//W3C//DTD SVG 1.1//EN" "http://www.w3.org/Graphics/SVG/1.1/DTD/svg11.dtd"><svg t="1579079763216" class="icon" viewBox="0 0 1024 1024" version="1.1" xmlns="http://www.w3.org/2000/svg" p-id="13906" xmlns:xlink="http://www.w3.org/1999/xlink" width="200" height="200"><defs><style type="text/css"></style></defs><path d="M887.04 305.664a32 32 0 0 0-30.144-29.824c-265.152-14.72-312.448-151.552-314.24-157.056a31.744 31.744 0 0 0-30.336-22.592 31.872 31.872 0 0 0-30.912 22.336c-1.856 5.76-49.152 142.528-314.24 157.312a32 32 0 0 0-30.208 29.824c-0.32 5.312-29.888 535.04 368.256 621.568a31.616 31.616 0 0 0 13.568 0c398.144-86.464 368.64-616.256 368.256-621.568zM512 863.168c-289.152-68.224-311.424-423.104-311.744-525.696C384 320.512 471.936 246.144 512 192.832c40.064 53.312 127.936 127.68 311.744 144.64-0.128 102.528-21.952 457.344-311.744 525.696z" fill="#1c3747" p-id="13907" data-spm-anchor-id="a313x.7781069.0.i11" class=""></path><path d="M387.584 489.344a32 32 0 1 0-45.248 45.312l136.128 136.064 234.944-216.96a31.936 31.936 0 1 0-43.328-46.976L480.192 582.016 387.584 489.344z" fill="#3fbac2" p-id="13908" data-spm-anchor-id="a313x.7781069.0.i12" class=""></path></svg>