<?xml version="1.0" standalone="no"?><!DOCTYPE svg PUBLIC "-//W3C//DTD SVG 1.1//EN" "http://www.w3.org/Graphics/SVG/1.1/DTD/svg11.dtd"><svg t="1579236026523" class="icon" viewBox="0 0 1024 1024" version="1.1" xmlns="http://www.w3.org/2000/svg" p-id="9621" xmlns:xlink="http://www.w3.org/1999/xlink" width="200" height="200"><defs><style type="text/css"></style></defs><path d="M686.08 68.266667H191.146667c-17.066667 0-34.133333 13.653333-34.133334 34.133333v819.2c0 20.48 13.653333 34.133333 34.133334 34.133333h641.706666c17.066667 0 34.133333-13.653333 34.133334-34.133333V252.586667L686.08 68.266667z" fill="#237baa" p-id="9622" data-spm-anchor-id="a313x.7781069.0.i19" class="selected"></path><path d="M866.986667 252.586667h-146.773334c-17.066667 0-34.133333-13.653333-34.133333-34.133334V68.266667l180.906667 184.32z" fill="#C6DDF7" p-id="9623"></path><path d="M249.173333 631.466667h51.2c61.44 0 95.573333 34.133333 95.573334 98.986666s-34.133333 98.986667-92.16 98.986667H249.173333v-197.973333z m47.786667 174.08c40.96 0 64.853333-23.893333 64.853333-75.093334 0-47.786667-23.893333-71.68-64.853333-71.68h-17.066667v146.773334h17.066667zM423.253333 730.453333c0-64.853333 34.133333-102.4 85.333334-102.4s85.333333 37.546667 85.333333 102.4-34.133333 102.4-85.333333 102.4-85.333333-37.546667-85.333334-102.4z m139.946667 0c0-47.786667-20.48-75.093333-54.613333-75.093333s-54.613333 27.306667-54.613334 75.093333c0 47.786667 20.48 75.093333 54.613334 75.093334s54.613333-30.72 54.613333-75.093334zM628.053333 730.453333c0-64.853333 37.546667-102.4 88.746667-102.4 23.893333 0 44.373333 10.24 54.613333 23.893334l-17.066666 20.48c-10.24-10.24-23.893333-17.066667-37.546667-17.066667-34.133333 0-58.026667 27.306667-58.026667 75.093333 0 47.786667 20.48 75.093333 58.026667 75.093334 17.066667 0 30.72-6.826667 44.373333-20.48l17.066667 20.48c-17.066667 17.066667-37.546667 27.306667-61.44 27.306666-51.2 0-88.746667-37.546667-88.746667-102.4z" fill="#FFFFFF" p-id="9624" data-spm-anchor-id="a313x.7781069.0.i18" class=""></path></svg>