<?xml version="1.0" standalone="no"?><!DOCTYPE svg PUBLIC "-//W3C//DTD SVG 1.1//EN" "http://www.w3.org/Graphics/SVG/1.1/DTD/svg11.dtd"><svg t="1579053879552" class="icon" viewBox="0 0 1024 1024" version="1.1" xmlns="http://www.w3.org/2000/svg" p-id="14115" xmlns:xlink="http://www.w3.org/1999/xlink" width="200" height="200"><defs><style type="text/css"></style></defs><path d="M511.37 958.8C298.53 958.68 115.22 808.89 73 600.58S141.17 183 337.18 100.18C564.88 4.11 827.46 110.57 923.66 338s-10.4 489.63-238.1 585.7a445.22 445.22 0 0 1-174.19 35.1z m0-794.45c-166 0-309 117.13-341.34 279.76S224.79 769.58 378.18 833s330.32 9.86 422.57-128a347.6 347.6 0 0 0-289.38-540.64z m0 0" fill="#4d606e" p-id="14116" data-spm-anchor-id="a313x.7781069.0.i20" class=""></path><path d="M654.05 542c24.08-16.42 24-43.11 0-59.47L427.72 328.08c-24.08-16.42-43.6-5.51-43.6 23.57v321.13c0 29.44 19.61 39.93 43.6 23.57z m0 0" fill="#3fbac2" p-id="14117" data-spm-anchor-id="a313x.7781069.0.i22" class="selected"></path></svg>