<?xml version="1.0" standalone="no"?><!DOCTYPE svg PUBLIC "-//W3C//DTD SVG 1.1//EN" "http://www.w3.org/Graphics/SVG/1.1/DTD/svg11.dtd"><svg t="1579056329189" class="icon" viewBox="0 0 1024 1024" version="1.1" xmlns="http://www.w3.org/2000/svg" p-id="16493" xmlns:xlink="http://www.w3.org/1999/xlink" width="200" height="200"><defs><style type="text/css"></style></defs><path d="M513.094 512.632m-448.882 0a448.882 448.882 0 1 0 897.764 0 448.882 448.882 0 1 0-897.764 0Z" fill="#ffffff" p-id="16494" data-spm-anchor-id="a313x.7781069.0.i39" class=""></path><path d="M735.244 302.234h-0.934c-0.277 0-0.519-0.035-0.796 0H515.992c-5.294 0.242-17.334 8.514-18.891 10.072L242.663 566.841c-13.493 13.499-13.493 35.373 0 48.872l195.344 195.418c6.781 6.749 15.604 10.107 24.427 10.107s17.68-3.357 24.427-10.107l254.438-254.535c1.557-1.558 10.241-12.253 10.241-18.898V319.401c0.484-9.657-6.816-17.167-16.296-17.167z m-53.819 98.177c-15.486 0-28.055-12.569-28.055-28.055 0-15.486 12.569-28.055 28.055-28.055 15.486 0 28.055 12.569 28.055 28.055 0 15.487-12.569 28.055-28.055 28.055z" fill="#231F20" p-id="16495"></path><path d="M735.244 274.179h-0.934c-0.277 0-0.519-0.035-0.796 0H515.992c-5.294 0.242-17.334 8.515-18.891 10.072L242.663 538.786c-13.493 13.499-13.493 35.373 0 48.872l195.344 195.418c6.781 6.749 15.604 10.107 24.427 10.107s17.68-3.357 24.427-10.107l254.438-254.535c1.557-1.558 10.241-12.253 10.241-18.898V291.346c0.484-9.657-6.816-17.167-16.296-17.167z m-53.819 98.177c-15.486 0-28.055-12.569-28.055-28.055s12.569-28.055 28.055-28.055c15.486 0 28.055 12.569 28.055 28.055s-12.569 28.055-28.055 28.055z" fill="#3fbac2" p-id="16496" data-spm-anchor-id="a313x.7781069.0.i41" class="selected"></path></svg>