<?xml version="1.0" standalone="no"?><!DOCTYPE svg PUBLIC "-//W3C//DTD SVG 1.1//EN" "http://www.w3.org/Graphics/SVG/1.1/DTD/svg11.dtd"><svg t="1579055717409" class="icon" viewBox="0 0 1024 1024" version="1.1" xmlns="http://www.w3.org/2000/svg" p-id="4967" xmlns:xlink="http://www.w3.org/1999/xlink" width="200" height="200"><defs><style type="text/css"></style></defs><path d="M47.786667 530.773333c35.84 0 59.733333 6.826667 68.266666 49.493334C150.186667 754.346667 256 863.573333 426.666667 906.24c42.666667 10.24 69.973333 23.893333 64.853333 73.386667-1.706667 13.653333 0 30.72 18.773333 32.426666 18.773333 0 22.186667-17.066667 20.48-30.72-6.826667-54.613333 27.306667-63.146667 69.973334-75.093333 167.253333-44.373333 273.066667-150.186667 305.493333-324.266667 6.826667-37.546667 27.306667-49.493333 61.44-49.493333 17.066667 0 37.546667 5.12 47.786667-17.066667-3.413333-23.893333-23.893333-25.6-40.96-23.893333-49.493333 5.12-61.44-22.186667-71.68-66.56-35.84-153.6-133.12-256-286.72-298.666667-46.08-11.946667-92.16-18.773333-85.333334-83.626666 1.706667-11.946667-3.413333-25.6-17.066666-27.306667-18.773333-1.706667-23.893333 15.36-22.186667 29.013333 5.12 59.733333-34.133333 71.68-80.213333 83.626667C254.293333 165.546667 157.013333 269.653333 119.466667 424.96c-10.24 44.373333-23.893333 69.973333-71.68 64.853333-17.066667-1.706667-40.96 0-39.253334 23.893334 1.706667 22.186667 23.893333 18.773333 39.253334 17.066666z m814.08 63.146667c-15.36 88.746667-71.68 167.253333-160.426667 223.573333-30.72 18.773333-64.853333 32.426667-98.986667 44.373334-23.893333 8.533333-54.613333 20.48-66.56-13.653334-10.24-32.426667-15.36-73.386667 27.306667-87.04 104.106667-30.72 167.253333-97.28 194.56-199.68 11.946667-40.96 47.786667-27.306667 75.093333-27.306666 30.72 0 32.426667 22.186667 29.013334 59.733333zM535.893333 186.026667c6.826667-32.426667 32.426667-27.306667 56.32-22.186667 133.12 25.6 269.653333 170.666667 269.653334 286.72 1.706667 20.48-1.706667 39.253333-25.6 39.253333-27.306667 0-64.853333 17.066667-76.8-23.893333-30.72-104.106667-93.866667-170.666667-201.386667-201.386667-32.426667-10.24-27.306667-49.493333-22.186667-78.506666z m-22.186666 117.76c117.76 1.706667 206.506667 92.16 206.506666 211.626666 0 110.933333-95.573333 206.506667-206.506666 206.506667-114.346667 0-209.92-95.573333-208.213334-209.92-1.706667-116.053333 90.453333-208.213333 208.213334-208.213333zM160.426667 436.906667c15.36-122.88 160.426667-264.533333 283.306666-274.773334 22.186667-1.706667 40.96 1.706667 46.08 25.6 5.12 29.013333 10.24 66.56-25.6 76.8-107.52 29.013333-170.666667 97.28-199.68 201.386667-8.533333 29.013333-34.133333 22.186667-54.613333 23.893333-44.373333 5.12-54.613333-15.36-49.493333-52.906666z m54.613333 95.573333c27.306667-3.413333 42.666667 10.24 51.2 40.96 29.013333 90.453333 83.626667 157.013333 180.906667 182.613333 47.786667 11.946667 49.493333 49.493333 40.96 85.333334-11.946667 46.08-46.08 25.6-73.386667 17.066666-126.293333-37.546667-208.213333-122.88-249.173333-245.76-20.48-59.733333-5.12-81.92 49.493333-80.213333z" fill="#4d606e" p-id="4968" data-spm-anchor-id="a313x.7781069.0.i24" class=""></path><path d="M512 624.64c61.44 0 107.52-49.493333 107.52-112.64 0-63.146667-46.08-110.933333-107.52-112.64-63.146667-1.706667-112.64 49.493333-110.933333 114.346667 1.706667 63.146667 51.2 112.64 110.933333 110.933333z m-3.413333-179.2c40.96-1.706667 66.56 22.186667 69.973333 68.266667-1.706667 39.253333-22.186667 66.56-64.853333 68.266666-42.666667 1.706667-66.56-22.186667-68.266667-64.853333-1.706667-46.08 23.893333-69.973333 63.146667-71.68z" fill="#3fbac2" p-id="4969" data-spm-anchor-id="a313x.7781069.0.i25" class=""></path></svg>