<?xml version="1.0" standalone="no"?><!DOCTYPE svg PUBLIC "-//W3C//DTD SVG 1.1//EN" "http://www.w3.org/Graphics/SVG/1.1/DTD/svg11.dtd"><svg t="1579236094883" class="icon" viewBox="0 0 1024 1024" version="1.1" xmlns="http://www.w3.org/2000/svg" p-id="10706" xmlns:xlink="http://www.w3.org/1999/xlink" width="200" height="200"><defs><style type="text/css"></style></defs><path d="M336 0h336v672H336z" fill="#FFFFFF" p-id="10707"></path><path d="M512 453.072h-61.944c-9.992 0-17.984 7.856-19.984 17.68L416.088 625.92v3.928c0 21.608 17.984 39.288 39.96 39.288h115.896c21.984-1.968 37.968-21.6 35.968-43.216l-13.984-155.168c0-7.856-6-13.752-11.992-15.712 6-3.928 10-9.824 10-17.68v-23.568c0-11.784-8-19.64-19.992-19.64H512v58.92zM512 60.24V1.312h201.824l237.784 237.664v705.144c0 43.216-35.968 78.568-79.92 78.568H152.32c-43.96 0-79.928-35.36-79.928-78.56V79.872c0-43.216 35.968-78.568 79.92-78.568h299.744c-11.992 0-19.984 7.856-19.984 19.64v23.568c0 11.784 7.992 19.64 19.984 19.64H512v58.928h59.944c11.992 0 19.984-7.856 19.984-19.64V79.88c0-11.792-7.992-19.648-19.984-19.648H512z m-19.984 471.408h39.968c11.984 0 19.984 7.856 19.984 19.64v58.928c0 11.784-8 19.64-19.984 19.64h-39.968c-11.984 0-19.984-7.856-19.984-19.64V551.28c0-11.784 8-19.64 19.984-19.64z m-39.96-412.48c-11.992 0-19.984 7.856-19.984 19.64v23.576c0 11.784 7.992 19.64 19.984 19.64H512v-62.856h-59.944z m0 117.856c-11.992 0-19.984 7.856-19.984 19.64v23.568c0 11.784 7.992 19.64 19.984 19.64H512v-62.848h-59.944z m0 98.208c-11.992 0-19.984 7.856-19.984 19.64v23.568c0 11.784 7.992 19.648 19.984 19.648H512v-62.856h-59.944zM512 178.08v62.856h59.944c11.992 0 19.984-7.856 19.984-19.648v-23.568c0-11.784-7.992-19.64-19.984-19.64H512z m0 117.848v62.856h59.944c11.992 0 19.984-7.856 19.984-19.64v-23.568c0-11.792-7.992-19.648-19.984-19.648H512z" fill="#F9C74F" p-id="10708"></path><path d="M711.824 1.312l239.784 235.704H791.76c-43.96 0-79.928-35.36-79.928-78.568V1.312z" fill="#FCE3A7" p-id="10709"></path></svg>